<svg version="1.2" xmlns="http://www.w3.org/2000/svg" viewBox="0 0 147 196" width="147" height="196">
	<title>web-images_full-logo</title>
	<style>
		.s0 { fill: #152437 } 
		.s1 { fill: #bd945b } 
	</style>
	<path fill-rule="evenodd" class="s0" d="m21.8 250.1l-28.8 0.8v-17.7h25.9v-1.8h-25.9v-16.6l28.2 0.9v-2.7h-32.6v39.7h33.2l-0.1-2.6z"/>
	<path fill-rule="evenodd" class="s0" d="m29.7 213v39.7h30.4v-2.6l-26.1 0.8v-37.9h-4.3z"/>
	<path class="s0" d="m100.8 225c0-8.8-6.6-12-18-12h-16.4v39.7h4.3v-15h12.1c11.7 0 18-3.6 18-12.7zm-18.6 10.9h-11.5v-21.1h11.5c9.6 0 14 2.2 14 10.3 0 8.5-4.3 10.8-14 10.8z"/>
	<path fill-rule="evenodd" class="s0" d="m108.8 213h4.3v39.7h-4.3z"/>
	<path class="s0" d="m122.1 223.3c0 3.2 0.9 5.7 3.4 7.4 2.5 1.6 6.5 2.5 12.7 3.4 6.5 1 10.2 1.6 12.4 3 2 1.2 2.7 3 2.7 5.3 0 6.8-6 8.9-16.3 8.9-6 0-11.1-1.4-15.9-2.2v2.5q2 0.4 4.1 0.6 2 0.3 4.1 0.5 2 0.2 4.1 0.3 2 0.1 4.1 0.1c11.4 0 19.9-2.7 19.9-11.7 0-3.7-1.2-6.2-4.1-8-2.6-1.6-6.8-2.4-12.9-3.3-6.6-0.9-10.1-1.7-12.1-3-1.7-1.2-2.2-2.8-2.2-5 0-5.7 5-7.6 14.3-7.6 5 0 9.3 1.3 13.7 2.1v-2.5q-1.8-0.3-3.5-0.6-1.8-0.3-3.5-0.5-1.8-0.1-3.5-0.2-1.8-0.1-3.5-0.2c-10.7 0-18 2.6-18 10.7z"/>
	<path class="s0" d="m9.7 287.6c-3.9 0-6.4-2-6.4-5.9 0-3.9 2.5-5.9 6.4-5.9q0.8-0.1 1.6 0.1 0.7 0.1 1.4 0.5 0.8 0.4 1.3 0.9 0.6 0.6 1 1.3l2.3-1.3q-0.6-0.9-1.4-1.7-0.8-0.7-1.8-1.2-1-0.6-2.1-0.8-1.1-0.2-2.2-0.2c-5.6 0-9 3.2-9 8.3 0 5.2 3.4 8.3 8.8 8.3 3.7 0 6.3-1.6 7.7-3.9l-2.3-1.2q-0.4 0.6-1 1.2-0.6 0.5-1.3 0.9-0.7 0.4-1.4 0.5-0.8 0.2-1.6 0.1z"/>
	<path class="s0" d="m31.6 273.9l-7.9 15.6h2.7l1.9-3.7h9.3l1.8 3.7h2.7l-7.8-15.6zm-2.2 9.6l3.5-7.3 3.6 7.3z"/>
	<path class="s0" d="m60.2 273.9h-9.9v15.6h2.5v-5.4h7.4c3.5 0 5.8-1.8 5.8-5.1 0-3.3-2.3-5.1-5.8-5.1zm-0.3 7.9h-7.1v-5.6h7.1c2.2 0 3.6 0.8 3.6 2.8 0 2-1.4 2.8-3.6 2.8z"/>
	<path fill-rule="evenodd" class="s0" d="m74.8 273.9h2.5v15.6h-2.5z"/>
	<path fill-rule="evenodd" class="s0" d="m85.7 276.2h6.5v13.3h2.5v-13.3h6.7v-2.3h-15.7v2.3z"/>
	<path class="s0" d="m113.3 273.9l-7.9 15.6h2.7l1.9-3.7h9.3l1.8 3.7h2.8l-7.9-15.6zm-2.2 9.6l3.6-7.3 3.5 7.3z"/>
	<path fill-rule="evenodd" class="s0" d="m134.5 273.9h-2.4v15.6h13.1v-2.3h-10.7v-13.3z"/>
	<path class="s1" d="m78.3 194.3q-0.3 0-0.5 0-0.3-0.1-0.5-0.3-0.2-0.1-0.3-0.4-0.1-0.2-0.2-0.4c-4-13.1-3.9-25 0.3-35.3q1.1-2.6 2.6-5.1 1.4-2.4 3.2-4.6 1.8-2.2 3.8-4.2 2.1-1.9 4.4-3.5 0.3-0.2 0.5-0.3 0.3 0 0.6 0 0.2 0 0.5 0.2 0.2 0.1 0.4 0.3 0.2 0.2 0.3 0.5 0.1 0.2 0.1 0.5 0.1 0.3 0 0.6-0.1 0.2-0.2 0.5c-6.3 10.6-11.5 27-0.6 44.5q0.1 0.2 0.1 0.3 0.1 0.2 0.1 0.4 0 0.2 0 0.4 0 0.2 0 0.4-0.1 0.2-0.2 0.3-0.1 0.2-0.2 0.3-0.2 0.2-0.3 0.3-0.2 0.1-0.3 0.1l-13.1 4.5q-0.1 0-0.1 0-0.1 0-0.2 0 0 0-0.1 0-0.1 0.1-0.1 0zm8.5-45.8q-1.1 1.2-2 2.5-1 1.2-1.9 2.6-0.8 1.4-1.6 2.8-0.7 1.4-1.3 2.9c-3.7 9.1-4 19.6-0.7 31.2l9.6-3.2c-8.2-14.6-6.4-28.3-2.1-38.8zm-17.5 26.3h-0.4l-8.2-1.8q-0.3-0.1-0.5-0.3-0.2-0.2-0.4-0.4-0.2-0.3-0.3-0.5 0-0.3 0-0.6c0.9-9.4 5.1-22.3 20.3-30.7q0.3-0.1 0.6-0.1 0.3-0.1 0.6 0 0.2 0.1 0.5 0.3 0.2 0.2 0.3 0.4 0.2 0.3 0.3 0.6 0 0.3 0 0.6 0 0.3-0.2 0.5-0.1 0.3-0.3 0.5c-9.2 8.4-12 21.2-10.8 29.6q0 0.2 0 0.4 0 0.2-0.1 0.4 0 0.2-0.1 0.4-0.1 0.1-0.3 0.3-0.1 0.1-0.2 0.2-0.1 0-0.3 0.1-0.1 0.1-0.3 0.1-0.1 0-0.2 0zm-6.5-4.8l4.7 1q-0.2-2.7 0-5.3 0.3-2.7 0.8-5.3 0.6-2.6 1.6-5.1 0.9-2.5 2.2-4.9-2 2-3.5 4.3-1.6 2.2-2.8 4.7-1.2 2.5-1.9 5.2-0.8 2.7-1.1 5.4zm43.6-4q-0.3 0-0.6-0.1-0.2-0.1-0.4-0.3-0.2-0.2-0.4-0.4-0.1-0.3-0.1-0.5c-1-4.7-3.6-5.3-13.2-3.1q0 0-0.1 0-0.1 0-0.1 0-0.1 0-0.2 0 0 0-0.1 0h-0.1q-0.3 0-0.6-0.2-0.3-0.1-0.5-0.4-0.2-0.2-0.3-0.5-0.1-0.3-0.1-0.6c0-1.5 2-4.2 6-8 3.1-3 19.5-17.9 33.7-16.2 4 0.4 8.7 1.7 10.6 6.9q0.2-0.4 0.3-0.7 0.2-0.4 0.3-0.8 0.1-0.4 0.2-0.9 0-0.4 0.1-0.8 0-1.1-0.1-2.2-0.2-1-0.5-2.1-0.3-1-0.9-2-0.5-0.9-1.2-1.8-0.3-0.4-0.7-0.8-0.3-0.2-0.5-0.5-0.3-0.2-0.6-0.4-0.3-0.3-0.6-0.5-0.3-0.2-0.6-0.3-0.3-0.2-0.5-0.5-0.2-0.2-0.3-0.5-0.1-0.3-0.1-0.7 0-0.3 0.2-0.6 0.1-0.3 0.3-0.5 0.2-0.2 0.5-0.3 0.3-0.1 0.7-0.1 0.3 0 0.6 0.2 0.3 0.2 0.6 0.4 0.4 0.2 0.7 0.4 0.3 0.2 0.6 0.5 0.3 0.2 0.6 0.5-0.1-1.1-0.3-2.1-0.3-1-0.7-2-0.4-1-1-1.8-0.6-0.9-1.4-1.7c-3.6-3.6-10.4-4.8-18.6-3.2q-1.6 0.3-3.2 0.6c-10.1 2-18.8 3.8-26.4-1.3-8.2-5.4-13.7-15.9-16-30.3q-0.6-3.9-0.8-7.8-0.3-4-0.3-8 0-3.9 0.3-7.9 0.4-4 1-7.9c-26.8-5.1-33.7-7.7-44.9-33.8l-13.8 13.3c9.2 14 20.2 29.3 51.5 27q0.3 0 0.5 0.1 0.2 0 0.4 0.2 0.2 0.1 0.3 0.2 0.2 0.2 0.3 0.4 0.1 0.1 0.1 0.2 0.1 0.1 0.1 0.3 0.1 0.1 0.1 0.2 0 0.2 0 0.3c0 0.9 0 2.4 0 4.2 0 4.4-0.1 10.9 0 12.9 0.2 2.5 0.5 5 0.8 7.2q0 0.1 0 0.1 0 0.1 0.1 0.1 0 0.1 0 0.1 0 0.1 0 0.1 0 0 0 0.1 0 0 0 0 0 0.1 0 0.1 0 0 0 0 0.1 0.6 0.2 1.1 0.5 3.3 1.4 6.4 0.3 1.3 0.7 2.5 0.4 1.3 0.9 2.5 0.4 1.2 0.9 2.4 0.5 1.2 1.1 2.4 1 2.1 2.2 4.2 0.3 0.6 0.7 1.3c2.9 4.8 6.1 8.4 9.5 10.5 9.1 5.8 13.7 5.5 23.6 3.4q0.3 0 0.6 0.1 0.3 0 0.6 0.2 0.3 0.2 0.4 0.5 0.2 0.3 0.2 0.6 0.1 0.3 0 0.6 0 0.3-0.2 0.6-0.2 0.3-0.4 0.5-0.3 0.2-0.6 0.3c-10.5 2.2-15.8 2.5-25.7-3.9q-0.5-0.2-0.9-0.5-0.4-0.3-0.8-0.6-0.4-0.3-0.7-0.6-0.4-0.3-0.8-0.6c-4.6 10.5-20.1 21.7-26 22.9q-0.2 0-0.3 0-0.2 0-0.4 0-0.1-0.1-0.3-0.2-0.2 0-0.3-0.2-0.1-0.1-0.2-0.2-0.1-0.2-0.2-0.4-0.1-0.1-0.1-0.3 0-0.2 0-0.4l0.2-13.3q0-0.3 0.1-0.6 0.1-0.3 0.3-0.5 0.2-0.2 0.5-0.4 0.2-0.1 0.5-0.1c7-0.6 16.5-6 21.2-11.9q-1.2-1.7-2.4-3.7-0.4-0.6-0.8-1.4-0.7-1.2-1.3-2.4c-3.3 4.8-9.6 9.7-17.6 13.6-8 3.9-16.5 6.2-22.6 6.1q-0.2 0-0.3-0.1-0.2 0-0.3-0.1-0.2-0.1-0.3-0.2-0.2-0.1-0.3-0.2-0.1-0.2-0.1-0.3-0.1-0.2-0.2-0.4 0-0.2 0-0.3 0-0.2 0-0.4l2.4-13.8q0-0.2 0.1-0.3 0.1-0.2 0.2-0.3 0-0.2 0.2-0.3 0.1-0.1 0.2-0.2 0.2-0.1 0.3-0.2 0.2 0 0.3-0.1 0.2 0 0.4 0 0.1 0 0.3 0.1c8.2 2.6 24.2-0.6 34.2-9.6q-1-2.6-1.7-5.3-0.2-0.7-0.4-1.5c-12.9 10.8-38.4 14-51.6 8.9q-0.1 0-0.3-0.1-0.1-0.1-0.2-0.2-0.1-0.1-0.2-0.3-0.1-0.1-0.2-0.2 0-0.2-0.1-0.4 0-0.1 0-0.3 0-0.2 0-0.3 0.1-0.2 0.1-0.3l4.7-13.6q0.1-0.1 0.1-0.3 0.1-0.1 0.3-0.3 0.1-0.1 0.2-0.2 0.2-0.1 0.3-0.2 0.2 0 0.4 0 0.1-0.1 0.3-0.1 0.2 0.1 0.3 0.1 0.2 0.1 0.3 0.2c11.7 7.2 30.4 7 44.1-0.3q-0.4-3.2-0.7-6.6 0-0.2 0-0.5c-19.3 9-45 5.6-60.4-8.3q-0.3-0.2-0.4-0.4-0.2-0.3-0.3-0.6 0-0.3 0-0.6 0.1-0.3 0.2-0.6l7.8-15.1q0.1-0.2 0.2-0.4 0.1-0.1 0.3-0.2 0.2-0.1 0.4-0.2 0.2-0.1 0.3-0.1 0.2 0 0.4 0 0.2 0 0.4 0.1 0.2 0.1 0.3 0.2 0.2 0.2 0.3 0.3c8.7 11.7 26.5 22.5 50.4 18 0-1.7 0-3.4 0-4.9q0-1.4 0-2.5c-14.4 0.8-25.9-2-35.1-8.5-8.3-5.9-13.7-14-18.4-21.2q-0.2-0.3-0.3-0.6-0.1-0.3 0-0.6 0-0.3 0.1-0.6 0.2-0.2 0.4-0.5l16.5-15.9q0.2-0.1 0.3-0.2 0.2-0.1 0.3-0.1 0.2-0.1 0.4-0.1 0.2 0 0.4 0 0.2 0.1 0.3 0.2 0.2 0.1 0.4 0.2 0.1 0.1 0.2 0.3 0.1 0.1 0.2 0.3c11.3 27.1 17 29 45 34.3q0.1 0.1 0.3 0.1 0.1 0.1 0.3 0.2 0.1 0.1 0.2 0.2 0.1 0.1 0.2 0.2 0.1 0.2 0.1 0.3 0.1 0.2 0.1 0.4 0.1 0.1 0.1 0.3 0 0.2-0.1 0.3c-2.9 14.6-3.3 48.5 14 60q0.8 0.6 1.7 1 0.8 0.4 1.8 0.8 0.9 0.3 1.8 0.5 0.9 0.2 1.9 0.3c10.9-19.5 16.8-35.4 18.7-50 2.1-16.6-1-32.4-9.6-48.3q-0.1-0.3-0.2-0.5 0-0.3 0-0.5 0-0.3 0.1-0.5 0.1-0.2 0.2-0.5l11.5-14.9q0.1-0.1 0.3-0.3 0.1-0.1 0.3-0.2 0.2-0.1 0.4-0.1 0.2 0 0.4 0 0.2 0.1 0.4 0.1 0.2 0.1 0.4 0.3 0.1 0.1 0.3 0.3 0.1 0.1 0.2 0.3c19.1 49.3 4.6 81.3-15.4 114.7 2.9-0.4 5.9-1 9.2-1.6l3.2-0.6c9.1-1.8 16.9-0.3 21.3 4q5 4.9 4.4 14.1 0.5 0.9 0.9 1.9 0.3 1 0.5 2 0.2 1 0.3 2 0.1 1.1 0 2.1 0 1.1-0.3 2.2-0.3 1.1-0.8 2.1-0.5 1-1.1 1.9-0.7 0.9-1.5 1.6-0.2 0.2-0.4 0.2-0.1 0.1-0.4 0.2-0.2 0-0.4 0-0.2 0-0.4-0.1-0.2-0.1-0.4-0.3-0.1-0.1-0.3-0.3-0.1-0.1-0.2-0.4-0.1-0.2-0.1-0.4c-0.6-5.3-3.7-6.7-8.6-7.3-8.4-1-18.3 5.1-23.4 8.8q-1.4 1-2.9 2.2-1.4 1.1-2.8 2.3-1.3 1.3-2.7 2.5-1.3 1.3-2.5 2.7c5.9-1.1 11.7-1.1 13.2 6.4q0.1 0.3 0 0.7 0 0.3-0.2 0.6-0.1 0.2-0.4 0.4-0.3 0.2-0.6 0.3 0 0-0.1 0 0 0.1 0 0.1-0.1 0-0.1 0-0.1 0-0.1 0zm-50.9-35.2l-0.2 9.5c6.2-2.5 17.9-11.7 21.8-20.1q-0.3-0.6-0.6-1.2c-5.1 5.7-13.8 10.6-21 11.8zm-21.5-16.3l-1.7 10c12.8-0.7 30.5-10.6 35.8-18.6q-0.1-0.4-0.2-0.8-1.8 1.3-3.7 2.5-1.9 1.2-3.9 2.2-2 1-4.1 1.9-2.1 0.8-4.2 1.4c-6.7 2.1-13 2.5-18 1.4zm74.6-97.7c8.5 16.2 11.6 32.5 9.4 49.5-1.8 14.4-7.5 29.9-17.7 48.7h0.5c10.9-18.1 18.9-33.7 22.5-50.9 4-19 2.1-37.8-5.7-59.2zm-92.3 83.9c14 4.5 37.7-0.3 48-9.7l-0.1-1c-13.8 7-32.2 7.2-44.4 0.6zm-10.7-31.2c7.1 6 16.7 9.9 27.1 11.1q3.8 0.5 7.6 0.5 3.8-0.1 7.6-0.6 3.7-0.6 7.4-1.7 3.6-1.1 7.1-2.7 0-0.2 0-0.4c0-0.1 0-0.3 0-0.5q-3.8 0.6-7.6 0.8-3.8 0.2-7.7-0.2-3.8-0.3-7.5-1.2-3.8-0.8-7.4-2.2-3-1.1-5.8-2.7-2.8-1.5-5.4-3.3-2.6-1.9-5-4.1-2.3-2.2-4.4-4.6zm93.1 33.8q0 0 0 0-0.1 0-0.1 0 0 0-0.1 0 0 0 0 0-0.3-0.1-0.5-0.2-0.3-0.2-0.5-0.4-0.1-0.2-0.2-0.5-0.1-0.2-0.1-0.5c-0.5-11.2-3.7-18.7-10.8-25.2q-0.2-0.2-0.3-0.3-0.1-0.1-0.1-0.3-0.1-0.1-0.1-0.3-0.1-0.1-0.1-0.3 0-0.2 0-0.3 0-0.2 0.1-0.3 0-0.2 0.1-0.3 0.1-0.2 0.2-0.3l8.2-10.5q0.1-0.1 0.3-0.2 0.1-0.2 0.3-0.2 0.2-0.1 0.4-0.1 0.2-0.1 0.3-0.1 0.2 0.1 0.4 0.1 0.2 0.1 0.4 0.2 0.1 0.1 0.2 0.3 0.2 0.1 0.3 0.3 2.3 4.3 3.7 9.1 1.4 4.7 1.8 9.7 0.4 4.9-0.1 9.8-0.6 5-2.2 9.7-0.1 0.2-0.2 0.4-0.2 0.2-0.4 0.4-0.2 0.1-0.4 0.2-0.2 0.1-0.5 0.1zm-9.2-28.3q1.9 1.7 3.4 3.7 1.6 2.1 2.8 4.3 1.2 2.2 2.1 4.6 0.9 2.3 1.4 4.8 0.4-3.1 0.4-6.3-0.1-3.2-0.6-6.3-0.5-3.2-1.4-6.2-0.9-3.1-2.3-5.9zm17.7 8.8q0 0-0.1 0 0 0 0 0-0.1 0-0.1 0 0 0-0.1 0-0.3 0-0.5-0.2-0.2-0.1-0.4-0.4-0.2-0.2-0.3-0.5-0.1-0.2-0.1-0.5 0-2.5-0.3-5-0.2-2.5-0.6-5-0.4-2.5-1-4.9-0.6-2.5-1.4-4.9c-1.8-5.3-4.9-12.6-9.9-16.9q-0.1-0.1-0.2-0.2-0.1-0.1-0.2-0.3-0.1-0.1-0.1-0.3-0.1-0.1-0.1-0.3 0-0.2 0-0.3 0-0.2 0.1-0.4 0-0.1 0.1-0.3 0.1-0.1 0.2-0.3l9.6-12.1q0.1-0.1 0.2-0.3 0.2-0.1 0.4-0.1 0.1-0.1 0.3-0.2 0.2 0 0.4 0 0.2 0.1 0.4 0.1 0.2 0.1 0.3 0.2 0.2 0.2 0.3 0.3 0.1 0.2 0.2 0.3c8 16.4 8.5 39 4.4 51.5q-0.1 0.2-0.3 0.4-0.1 0.2-0.3 0.3-0.2 0.2-0.4 0.3-0.3 0-0.5 0zm-11.6-39.8c6.4 6.4 10.4 17.6 12.1 27.4 1-11-0.3-25-5.1-36.3z"/>
	<path class="s1" d="m111.4 171.6q-0.1 0-0.1-0.1-0.1 0-0.1 0-0.1 0-0.1 0-0.1 0-0.1 0-0.3-0.1-0.6-0.3-0.2-0.2-0.4-0.5-0.2-0.3-0.2-0.6 0-0.3 0.1-0.7c0.8-3.6 0.6-8.5-5.5-11q-1.5-0.5-3.1-0.7-1.7-0.1-3.3 0.2-1.6 0.3-3 1.1-1.4 0.8-2.6 1.9-0.2 0.3-0.5 0.4-0.3 0.1-0.6 0-0.3 0-0.6-0.1-0.3-0.2-0.5-0.4-0.2-0.3-0.3-0.6-0.1-0.3-0.1-0.7 0.1-0.3 0.2-0.6 0.1-0.3 0.4-0.5 1.4-1.5 3.2-2.4 1.9-1 3.9-1.4 2-0.4 4-0.2 2.1 0.1 4 0.9c6.3 2.5 9.1 8.1 7.4 15q-0.1 0.2-0.2 0.5-0.2 0.2-0.4 0.4-0.2 0.1-0.4 0.2-0.3 0.1-0.5 0.2z"/>
</svg>