<?xml version="1.0" encoding="UTF-8"?>
<svg id="Layer_2" data-name="Layer 2" xmlns="http://www.w3.org/2000/svg" viewBox="0 0 221.18 117.62">
  <defs>
    <style>
      .cls-1 {
        fill: #fff;
      }
    </style>
  </defs>
  <g id="Layer_1-2" data-name="Layer 1">
    <g>
      <g>
        <path class="cls-1" d="M55.74,57.77v4.6H21.46V21.1h33.78v4.6h-29.53v13.38h25.02v4.6h-25.02v14.09h30.03Z"/>
        <path class="cls-1" d="M95.9,57.77v4.6h-31.4V21.1h4.25v36.67h27.15Z"/>
        <path class="cls-1" d="M140.21,34.19c0,8.25-5.42,13.09-13.57,13.09h-19.45v15.09h-4.25V21.1h23.7c8.15,0,13.57,4.83,13.57,13.09ZM135.86,34.19c0-5.78-3.75-8.49-9.52-8.49h-19.14v16.98h19.14c5.77,0,9.52-2.71,9.52-8.49Z"/>
        <path class="cls-1" d="M148.26,62.37V21.1h4.25v41.27h-4.25Z"/>
        <path class="cls-1" d="M199.72,50.4c0,7.61-6.63,13.21-18.18,13.21-7.75,0-15.19-2.83-20.71-8.49l2.99-3.71c5.17,5.31,10.89,7.61,17.98,7.61,8.56,0,13.57-3.12,13.57-8.25s-5.22-6.25-14.79-7.19c-9.47-.94-18.54-3.36-18.54-11.5s8.41-12.2,17.88-12.2c7.7,0,14.03,3.12,18.13,7.37l-3.34,3.3c-3.44-3.95-8.66-6.01-14.59-6.07-6.33-.06-13.72,2-13.72,7.43,0,5.13,6.68,6.19,15.04,6.96,10.79,1,18.28,3.42,18.28,11.56Z"/>
      </g>
      <g>
        <path class="cls-1" d="M49.53,93.39l2.11,1.04c-1.25,1.94-3.69,3.33-7.05,3.33-4.98,0-8.11-2.68-8.11-7.05s3.13-7.05,8.21-7.05c3.27,0,5.7,1.41,6.93,3.31l-2.13,1.06c-.99-1.63-2.68-2.36-4.84-2.36-3.51,0-5.85,1.71-5.85,5.03s2.34,5.03,5.85,5.03c2.17,0,3.88-.7,4.88-2.36Z"/>
        <path class="cls-1" d="M72.84,94.15h-8.53l-1.69,3.21h-2.47l7.2-13.3h2.51l7.18,13.3h-2.49l-1.71-3.21ZM71.84,92.22l-3.25-6.16-3.25,6.16h6.5Z"/>
        <path class="cls-1" d="M101.55,88.42c0,2.79-2.15,4.35-5.38,4.35h-6.71v4.6h-2.28v-13.3h8.99c3.23,0,5.38,1.58,5.38,4.35ZM99.22,88.44c0-1.71-1.27-2.38-3.23-2.38h-6.52v4.75h6.52c1.96,0,3.23-.68,3.23-2.38Z"/>
        <path class="cls-1" d="M112.23,97.37v-13.3h2.28v13.3h-2.28Z"/>
        <path class="cls-1" d="M139.21,86.06h-6.06v11.3h-2.28v-11.3h-6.02v-1.99h14.36v1.99Z"/>
        <path class="cls-1" d="M158.27,94.15h-8.53l-1.69,3.21h-2.47l7.2-13.3h2.51l7.18,13.3h-2.49l-1.71-3.21ZM157.26,92.22l-3.25-6.16-3.25,6.16h6.5Z"/>
        <path class="cls-1" d="M184.7,95.35v2.01h-12.08v-13.3h2.28v11.28h9.8Z"/>
      </g>
    </g>
    <path class="cls-1" d="M221.18,117.62H0V0h221.18v117.62ZM2,115.62h217.18V2H2v113.62Z"/>
  </g>
</svg>