<?xml version="1.0" encoding="UTF-8"?> <svg xmlns="http://www.w3.org/2000/svg" id="Layer_1" data-name="Layer 1" viewBox="0 0 300 300"><defs><style>.cls-1{fill:none;stroke:#152437;stroke-miterlimit:10;stroke-width:4.26px;}.cls-2{fill:#152437;}</style></defs><rect class="cls-1" x="4.41" y="73.18" width="290" height="154.91"></rect><polygon class="cls-2" points="77.9 148.99 37.76 150.15 37.76 127.15 73.93 127.15 73.93 124.85 37.76 124.85 37.76 103.31 77.06 104.47 77.06 101.02 31.69 101.02 31.69 152.45 77.9 152.45 77.9 148.99"></polygon><polygon class="cls-2" points="88.98 101.02 88.98 152.45 131.43 152.45 131.43 148.99 95.05 150.15 95.05 101.02 88.98 101.02"></polygon><path class="cls-2" d="M188.23,116.56c0-11.43-9.2-15.54-25.16-15.54H140.15v51.43h6.06V132.94h16.86C179.45,132.94,188.23,128.34,188.23,116.56Zm-26,14.08h-16V103.32h16c13.45,0,19.58,2.92,19.58,13.38C181.82,127.64,175.76,130.64,162.24,130.64Z"></path><rect class="cls-2" x="199.32" y="101.02" width="6.06" height="51.43"></rect><path class="cls-2" d="M217.86,114.33c0,4.18,1.32,7.39,4.81,9.55s9.06,3.34,17.7,4.46c9.06,1.25,14.29,2.09,17.36,3.83,2.78,1.53,3.69,3.83,3.69,6.9,0,8.78-8.43,11.43-22.65,11.43-8.43,0-15.47-1.79-22.23-2.76V151a150.71,150.71,0,0,0,22.86,1.88c16,0,27.73-3.49,27.73-15.12,0-4.74-1.6-8-5.64-10.32-3.69-2.09-9.55-3.14-18.05-4.25-9.2-1.19-14.08-2.23-16.87-3.9-2.3-1.54-3.06-3.7-3.06-6.49,0-7.38,7-9.89,20-9.89,7,0,13,1.78,19,2.76v-3.25A110,110,0,0,0,243,100.53C228.11,100.53,217.86,103.8,217.86,114.33Z"></path><path class="cls-2" d="M61.05,197.66c-5.36,0-8.91-2.6-8.91-7.66s3.55-7.67,8.91-7.67c3.3,0,5.87,1.1,7.38,3.59l3.24-1.63c-1.88-2.89-5.59-5-10.56-5-7.73,0-12.5,4.08-12.5,10.74S53.38,200.73,61,200.73c5.12,0,8.83-2.11,10.74-5.06l-3.22-1.59C67,196.59,64.35,197.66,61.05,197.66Z"></path><path class="cls-2" d="M91.61,179.87l-11,20.25H84.4L87,195.23h13l2.61,4.89h3.79L95.43,179.87Zm-3.07,12.41,4.95-9.37,5,9.37Z"></path><path class="cls-2" d="M131.48,179.87H117.8v20.25h3.47v-7h10.21c4.92,0,8.19-2.37,8.19-6.63S136.4,179.87,131.48,179.87Zm-.28,10.27h-9.93v-7.23h9.93c3,0,4.91,1,4.91,3.62S134.18,190.14,131.2,190.14Z"></path><rect class="cls-2" x="151.92" y="179.87" width="3.47" height="20.25"></rect><polygon class="cls-2" points="167.11 182.91 176.28 182.91 176.28 200.12 179.75 200.12 179.75 182.91 188.99 182.91 188.99 179.87 167.11 179.87 167.11 182.91"></polygon><path class="cls-2" d="M205.63,179.87l-11,20.25h3.76l2.58-4.89h13l2.6,4.89h3.79l-10.93-20.25Zm-3.07,12.41,4.95-9.37,5,9.37Z"></path><polygon class="cls-2" points="235.29 179.87 231.82 179.87 231.82 200.12 250.22 200.12 250.22 197.06 235.29 197.06 235.29 179.87"></polygon></svg> 